<svg width="797" height="797" viewBox="0 0 797 797" fill="none" xmlns="http://www.w3.org/2000/svg">
<g clip-path="url(#clip0_452_571)">
<rect width="797" height="797" rx="181" fill="#8341EF"/>
<path d="M205.217 659V137.958H264.765L342.921 536.183H344.41C339.448 434.952 336.966 372.923 336.966 350.097V137.958H388.326V659H328.779L250.622 260.775H249.134C254.096 364.487 256.577 426.516 256.577 446.861V659H205.217ZM526.554 666.443C499.757 666.443 479.164 657.759 464.773 640.391C450.878 623.023 443.931 596.971 443.931 562.235V495.244H498.268V565.957C498.268 585.31 500.253 598.956 504.223 606.896C508.689 614.339 516.133 618.061 526.554 618.061C536.478 618.061 543.674 614.339 548.14 606.896C552.606 598.956 554.839 585.31 554.839 565.957C554.839 544.123 553.598 527.003 551.117 514.597C549.132 502.191 544.914 489.289 538.463 475.891C532.012 461.997 520.351 439.914 503.479 409.644C487.103 380.367 474.946 357.54 467.006 341.164C459.563 324.293 454.352 308.165 451.375 292.782C448.894 276.903 447.653 257.55 447.653 234.723C447.653 199.987 454.6 173.935 468.495 156.567C482.389 139.199 502.238 130.515 528.042 130.515C553.846 130.515 573.696 139.199 587.59 156.567C601.484 173.935 608.432 199.987 608.432 234.723V290.549H554.094V231.001C554.094 212.144 551.861 198.746 547.395 190.807C543.425 182.867 536.974 178.897 528.042 178.897C519.11 178.897 512.411 182.867 507.945 190.807C503.975 198.746 501.99 212.144 501.99 231.001C501.99 251.843 502.983 268.219 504.968 280.128C507.449 291.541 511.667 303.947 517.621 317.345C524.072 330.247 535.486 351.089 551.861 379.87C568.733 409.644 581.139 433.463 589.079 451.328C597.018 468.696 602.229 485.319 604.71 501.199C607.687 517.078 609.176 537.424 609.176 562.235C609.176 596.971 601.981 623.023 587.59 640.391C573.696 657.759 553.35 666.443 526.554 666.443Z" fill="black" fill-opacity="0.8"/>
</g>
<defs>
<clipPath id="clip0_452_571">
<rect width="797" height="797" rx="181" fill="white"/>
</clipPath>
</defs>
</svg>